<svg xmlns="http://www.w3.org/2000/svg"
     class="svg-snoweb svg-theme-light"
     x="0"
     y="0"
     width="50"
     height="50"
     viewBox="0 0 100 100"
     preserveAspectRatio="xMidYMid meet"
>
    <defs>
        <style>
            .svg-fill-primary {
            fill: deepskyblue;
            }

            .svg-fill-secondary {
            fill: black;
            }

            .svg-fill-tertiary {
            fill: red;
            }

            .svg-stroke-primary {
            stroke: #abecfc;
            }

            .svg-stroke-secondary {
            stroke: black;
            }

            .svg-stroke-tertiary {
            stroke: #E5E7EB;
            }
        </style>
    </defs>


    <clipPath id="clip-path-202301-1916-1740-254491fe-0a0a-48c8-8eb1-eddf06172280">
        <circle cx="52" cy="52" r="52"></circle>
    </clipPath>

    <circle
            class="svg-fill-tertiary"
            cx="50"
            cy="50"
            r="50">
    </circle>
    <circle
            class="svg-fill-secondary svg-builder-circle"
            cx="50"
            cy="50"
            r="44">
    </circle>

    <g transform="translate(20.00, 20.00) scale(0.60, 0.60)">

        <path class="svg-fill-primary"
              d="M50.11,0C21.88,0,0,20.63,0,48.5A47.41,47.41,0,0,0,15.74,84.38c1.68,1.52,1.34,2.39,1.62,11.74A4,4,0,0,0,21.51,100,3.9,3.9,0,0,0,23,99.66C33.65,95,33.79,94.6,35.6,95.09,66.5,103.59,100,83.81,100,48.5,100,20.63,78.34,0,50.11,0ZM80.2,37.33,65.48,60.63A7.54,7.54,0,0,1,55.08,63l-.47-.32L42.9,53.87a3,3,0,0,0-3.63,0l-15.8,12A2.38,2.38,0,0,1,20,62.69l14.72-23.3a7.54,7.54,0,0,1,10.4-2.33,5,5,0,0,1,.47.33l11.71,8.76a3,3,0,0,0,3.63,0l15.8-12a2.37,2.37,0,0,1,3.45,3.15Z">
        </path>


    </g>
</svg>